<?xml version="1.0" standalone="no"?>
<!DOCTYPE svg PUBLIC "-//W3C//DTD SVG 20010904//EN"
 "http://www.w3.org/TR/2001/REC-SVG-20010904/DTD/svg10.dtd">
<svg version="1.0" xmlns="http://www.w3.org/2000/svg"
 width="380.000000pt" height="288.000000pt" viewBox="0 0 380.000000 288.000000"
 preserveAspectRatio="xMidYMid meet">

<g transform="translate(0.000000,288.000000) scale(0.100000,-0.100000)"
fill="#000000" stroke="none">
<path d="M1605 2348 c-607 -316 -1180 -627 -1171 -635 5 -5 122 51 621 297
270 133 567 279 660 324 l170 82 185 -12 c106 -8 327 -34 515 -63 268 -40 555
-71 677 -71 10 0 24 -13 33 -30 20 -39 19 -47 -5 -25 -29 26 -112 36 -665 81
-194 16 -412 27 -530 28 l-200 1 -360 -158 c-420 -185 -947 -428 -941 -434 2
-3 17 2 33 10 l28 15 11 -181 11 -182 1 186 2 187 40 16 c22 9 45 16 50 16 6
0 10 -52 11 -127 1 -71 4 -153 9 -183 5 -39 8 2 9 136 l1 192 56 22 c47 19 57
21 65 9 5 -8 9 -86 9 -174 0 -107 4 -155 10 -145 5 8 10 83 10 165 0 83 3 159
6 170 6 25 143 82 154 65 4 -6 10 -95 14 -198 4 -103 11 -221 15 -262 6 -74 7
-73 14 64 4 77 7 205 7 286 l0 147 81 31 c125 50 115 64 122 -170 11 -341 9
-448 -8 -454 -8 -4 -133 -23 -278 -44 -144 -21 -251 -38 -237 -39 38 -2 512
47 532 54 10 4 21 17 25 28 4 12 8 173 8 357 l0 334 175 72 c96 40 183 73 192
73 37 2 48 -26 48 -120 0 -82 -1 -89 -20 -89 -18 0 -20 7 -20 74 0 51 -4 76
-12 79 -15 4 -115 -23 -168 -46 -39 -17 -141 -87 -125 -87 6 1 21 7 35 15 52
30 50 51 51 -487 0 -277 4 -521 8 -543 4 -23 10 118 14 335 4 206 10 457 14
557 l6 182 66 15 c75 17 81 14 81 -51 0 -32 -4 -43 -19 -48 -31 -9 -52 -52
-67 -134 -16 -89 -18 -229 -4 -265 7 -20 16 -26 40 -26 l30 0 0 -484 c0 -328
-3 -487 -10 -491 -14 -9 7 -35 26 -35 12 0 14 45 15 253 1 138 5 367 8 507 l6
255 28 3 c27 3 27 3 27 -61 0 -73 19 -136 56 -184 41 -54 69 -63 200 -63 104
0 115 -2 104 -15 -10 -12 -10 -19 -2 -27 15 -15 42 -2 42 20 0 19 14 20 328
24 180 3 331 3 335 1 5 -3 -1 -16 -13 -28 -23 -24 -20 -45 6 -45 8 0 15 7 15
15 1 8 3 20 4 25 1 6 3 17 4 25 1 12 23 15 129 16 70 1 160 4 201 8 103 8 112
21 112 163 l0 106 40 7 c57 10 72 47 67 171 -3 105 -18 136 -80 167 l-35 17
-6 133 c-6 131 -16 187 -40 219 -10 13 -123 32 -537 92 -524 75 -838 117 -882
115 -13 0 -135 -59 -273 -131z m1005 -77 l45 -6 5 -407 c3 -223 8 -409 11
-413 4 -3 8 177 11 400 3 342 6 408 18 416 21 13 285 -7 475 -37 140 -22 128
14 139 -433 5 -209 6 -395 2 -415 -4 -20 -15 -40 -26 -46 -12 -6 -83 -9 -181
-8 l-160 3 131 168 c72 93 129 172 126 175 -8 7 -6 10 -124 -148 -56 -74 -115
-150 -130 -167 l-28 -33 -332 0 c-183 0 -332 2 -332 5 0 3 62 85 139 183 76
97 137 179 135 181 -7 8 -32 -20 -111 -128 -48 -64 -110 -144 -140 -178 l-55
-63 -127 0 c-121 0 -130 1 -154 24 -28 26 -50 66 -62 111 -4 17 -7 189 -6 384
2 365 7 412 44 427 50 19 562 23 687 5z m-795 -479 c0 -171 -6 -186 -70 -186
-54 0 -60 13 -59 122 2 158 45 246 108 222 20 -7 21 -14 21 -158z m1597 28
c13 -24 18 -59 18 -112 0 -97 -11 -128 -45 -128 -14 0 -27 6 -30 13 -2 6 -5
70 -8 140 l-4 128 26 -3 c18 -2 31 -14 43 -38z"/>
<path d="M1432 1363 c1 -443 3 -561 8 -418 14 388 15 1028 2 1033 -9 3 -12
-143 -10 -615z"/>
<path d="M1483 1815 c0 -44 2 -61 4 -37 2 23 2 59 0 80 -2 20 -4 1 -4 -43z"/>
<path d="M540 1714 c-23 -13 -23 -14 -3 -9 30 8 33 -6 36 -190 l3 -150 2 183
c1 100 -1 182 -5 182 -5 -1 -19 -7 -33 -16z"/>
<path d="M1474 1500 c0 -102 2 -143 3 -92 2 50 2 134 0 185 -1 50 -3 9 -3 -93z"/>
<path d="M463 1605 c-41 -18 -43 -29 -3 -20 l30 7 0 -191 c0 -121 4 -191 10
-191 6 0 10 34 10 83 0 46 3 139 7 205 7 135 7 134 -54 107z"/>
<path d="M433 1505 c0 -38 2 -53 4 -32 2 20 2 52 0 70 -2 17 -4 1 -4 -38z"/>
<path d="M1624 1405 c0 -88 2 -123 3 -77 2 46 2 118 0 160 -1 42 -3 5 -3 -83z"/>
<path d="M758 1283 c12 -2 30 -2 40 0 9 3 -1 5 -23 4 -22 0 -30 -2 -17 -4z"/>
<path d="M342 979 c-2 -111 -1 -116 21 -127 40 -21 138 -54 143 -49 3 3 -25
15 -63 27 -37 13 -73 27 -80 32 -8 7 -13 49 -16 121 l-3 112 -2 -116z"/>
<path d="M1244 1034 c-28 -41 -44 -121 -51 -242 -5 -88 -10 -115 -21 -120 -20
-7 -133 12 -315 54 -143 33 -205 43 -142 23 81 -26 421 -109 446 -109 39 0 45
17 53 140 7 122 27 215 51 239 15 15 17 15 30 -2 17 -24 35 -130 33 -198 -1
-44 -2 -46 -5 -14 -8 108 -16 146 -30 160 -24 24 -39 3 -54 -73 -15 -74 -19
-355 -6 -415 12 -56 60 -75 191 -75 147 -1 196 25 196 102 l0 23 153 -44 c140
-41 163 -46 292 -50 117 -4 172 -1 331 22 l192 26 25 -25 c28 -28 82 -35 119
-15 11 6 52 12 92 14 87 3 101 9 116 46 7 16 13 29 14 30 0 0 84 10 185 22
174 21 185 23 203 48 16 21 18 34 12 80 l-8 54 -8 -59 c-4 -33 -13 -63 -20
-68 -7 -4 -52 -8 -99 -8 -48 0 -261 -18 -475 -41 -214 -22 -443 -44 -509 -50
-143 -11 -373 3 -514 31 -187 37 -326 72 -333 83 -17 25 -28 88 -42 235 -15
160 -28 202 -66 202 -11 0 -27 -12 -36 -26z m41 -351 c0 -105 -4 -156 -12
-164 -9 -9 -14 -5 -20 17 -10 37 -10 293 0 319 l8 20 12 -20 c8 -13 12 -73 12
-172z m123 -95 c68 -21 71 -25 46 -88 -19 -46 -39 -60 -86 -60 -65 0 -66 5
-40 255 l7 70 5 -79 5 -80 63 -18z m174 -51 l28 -12 -17 -35 c-17 -33 -22 -35
-72 -38 -46 -3 -53 -1 -47 13 3 9 6 35 6 57 l0 40 37 -7 c21 -4 50 -12 65 -18z
m1338 -15 c0 -19 -27 -32 -68 -32 -55 0 -53 22 4 31 60 9 64 10 64 1z m-174
-37 c-21 -16 -63 -19 -93 -8 -16 6 -15 8 7 14 14 4 43 7 65 8 37 0 39 -1 21
-14z"/>
<path d="M542 1021 c-16 -10 -32 -58 -31 -94 1 -29 2 -27 11 13 13 57 26 74
44 59 8 -6 14 -17 13 -23 0 -7 -2 -6 -6 2 -8 21 -21 13 -32 -19 -12 -34 -15
-246 -5 -273 5 -13 25 -16 119 -16 63 0 116 3 118 8 3 4 -9 7 -26 7 -166 3
-174 4 -170 28 2 12 8 58 12 102 8 76 8 77 10 23 1 -53 12 -80 25 -59 3 5 1
46 -5 92 -14 115 -43 171 -77 150z m45 -108 c-3 -10 -5 -4 -5 12 0 17 2 24 5
18 2 -7 2 -21 0 -30z m-22 -48 c8 -62 -2 -148 -16 -140 -12 8 -12 195 0 195 5
0 13 -25 16 -55z"/>
<path d="M3156 1004 c-19 -18 -20 -30 -5 -73 13 -38 38 -46 111 -34 53 8 53 8
56 47 5 57 -17 76 -89 76 -39 0 -63 -5 -73 -16z m132 -16 c7 -7 12 -23 12 -35
0 -23 -3 -24 -57 -21 -59 3 -74 16 -59 54 7 18 87 19 104 2z"/>
<path d="M1972 988 c-15 -15 -16 -82 -2 -109 9 -16 22 -19 74 -19 52 0 66 4
84 23 24 26 30 85 10 105 -16 16 -150 16 -166 0z m117 -14 c24 -5 31 -12 31
-29 0 -33 -18 -43 -88 -47 l-64 -3 6 34 c8 50 35 61 115 45z"/>
<path d="M2515 955 l-90 -12 113 -2 c87 -1 113 2 110 12 -6 16 -27 17 -133 2z"/>
<path d="M2736 962 c-15 -15 13 -22 82 -21 59 1 70 3 47 9 -40 11 -123 19
-129 12z"/>
<path d="M866 879 c2 -3 47 -9 101 -13 54 -4 113 -9 132 -13 26 -4 33 -3 29 8
-3 11 -36 15 -135 19 -72 3 -129 2 -127 -1z"/>
<path d="M2264 876 c-12 -32 14 -54 71 -61 91 -12 521 2 600 19 l70 15 -95 -7
c-52 -4 -201 -7 -330 -6 -239 1 -280 7 -280 39 0 19 -29 19 -36 1z"/>
<path d="M3023 853 c9 -2 23 -2 30 0 6 3 -1 5 -18 5 -16 0 -22 -2 -12 -5z"/>
<path d="M3199 784 c-9 -11 -10 -20 -2 -32 12 -19 44 -23 50 -5 3 7 -4 9 -18
6 -16 -4 -20 -2 -17 8 3 8 12 13 22 11 9 -2 16 4 16 13 0 20 -34 19 -51 -1z"/>
<path d="M2047 764 c-10 -11 3 -24 23 -24 19 0 34 -25 24 -41 -11 -18 -52 -10
-57 12 -7 25 -40 22 -45 -3 -5 -24 42 -68 70 -68 63 0 95 80 46 114 -23 17
-50 21 -61 10z"/>
<path d="M1620 600 c14 -4 36 -8 50 -8 22 0 22 1 -5 8 -16 4 -39 8 -50 8 -16
0 -15 -2 5 -8z"/>
</g>
</svg>
