<?xml version="1.0" standalone="no"?>
<!DOCTYPE svg PUBLIC "-//W3C//DTD SVG 20010904//EN"
 "http://www.w3.org/TR/2001/REC-SVG-20010904/DTD/svg10.dtd">
<svg version="1.0" xmlns="http://www.w3.org/2000/svg"
 width="225.000000pt" height="225.000000pt" viewBox="0 0 225.000000 225.000000"
 preserveAspectRatio="xMidYMid meet">

<g transform="translate(0.000000,225.000000) scale(0.100000,-0.100000)"
fill="#000000" stroke="none">
<path d="M1065 1793 c-89 -7 -286 -36 -378 -54 -93 -19 -213 -57 -205 -65 2
-2 76 6 164 17 112 15 222 21 374 23 l215 1 96 -46 c112 -54 295 -163 497
-295 78 -51 142 -92 142 -90 0 2 -76 63 -169 135 -199 154 -401 293 -486 332
-60 28 -149 51 -189 47 -11 -1 -39 -3 -61 -5z"/>
<path d="M612 1668 c-129 -12 -151 -23 -185 -92 -27 -54 -29 -56 -68 -56 -26
0 -42 -5 -45 -15 -4 -8 -14 -15 -25 -15 -45 0 -53 -97 -14 -175 l24 -50 1 50
c1 28 7 82 14 120 10 61 15 70 35 73 13 2 27 0 31 -5 5 -4 -8 -60 -29 -123
-21 -63 -44 -149 -51 -190 -13 -72 -20 -343 -10 -353 14 -14 283 -32 495 -32
283 0 308 5 318 72 11 68 26 269 37 501 10 199 9 226 -5 248 -11 16 -25 24
-45 24 l-30 0 21 -21 c20 -20 21 -28 15 -153 -18 -370 -37 -545 -61 -582 -15
-24 -38 -29 -211 -43 -119 -11 -464 -3 -486 10 -20 13 -22 186 -4 321 25 175
108 431 144 442 44 14 176 26 343 32 101 4 193 10 204 15 27 10 -296 9 -413
-3z"/>
<path d="M1283 1599 c-17 -21 -41 -143 -52 -259 -16 -168 -25 -430 -15 -430
28 0 201 77 230 103 20 17 51 65 75 113 29 62 45 84 59 84 22 0 176 -51 246
-81 26 -11 49 -18 51 -16 2 3 -69 38 -158 78 l-161 74 5 99 c4 54 8 101 11
103 2 2 29 -10 60 -27 l55 -32 3 -96 3 -97 9 83 c5 45 12 84 16 87 4 2 23 -7
43 -20 35 -24 36 -27 35 -85 -1 -33 2 -63 5 -67 4 -3 7 16 7 43 0 71 9 79 53
48 37 -25 37 -25 38 -97 1 -75 3 -74 14 6 5 40 9 47 23 42 21 -8 18 -5 -53 47
-293 215 -561 347 -602 297z m191 -77 l66 -31 0 -113 c0 -97 -3 -117 -21 -143
-11 -16 -33 -55 -49 -86 -16 -31 -41 -71 -56 -89 -30 -35 -95 -69 -133 -70
l-23 0 6 113 c12 196 30 382 41 415 2 6 11 12 20 12 16 0 21 -30 6 -45 -27
-31 -43 -183 -27 -262 7 -36 6 -42 -10 -46 -17 -5 -17 -6 1 -4 12 1 21 11 23
25 2 15 10 22 26 22 47 0 56 18 67 138 11 124 7 142 -37 142 -17 0 -24 6 -24
20 0 11 -7 20 -15 20 -8 0 -15 5 -15 11 0 20 84 4 154 -29z"/>
<path d="M1987 1209 c4 -13 8 -18 11 -10 2 7 -1 18 -6 23 -8 8 -9 4 -5 -13z"/>
<path d="M2032 1090 c0 -19 2 -27 5 -17 2 9 2 25 0 35 -3 9 -5 1 -5 -18z"/>
<path d="M1900 1100 c8 -5 20 -10 25 -10 6 0 3 5 -5 10 -8 5 -19 10 -25 10 -5
0 -3 -5 5 -10z"/>
<path d="M2045 972 c3 -73 1 -82 -13 -78 -53 15 -448 96 -470 96 -15 0 -103
-37 -195 -82 l-168 -83 7 -70 c4 -38 7 -71 8 -72 0 0 64 44 141 99 157 112
224 148 275 148 19 0 118 -11 220 -25 102 -14 188 -25 193 -25 4 0 7 -36 7
-80 l0 -80 -30 0 c-25 0 -30 4 -30 24 0 36 -18 76 -34 76 -21 0 -39 -27 -29
-43 7 -13 10 -13 23 1 13 14 12 15 -3 9 -19 -7 -23 8 -5 19 24 15 40 -29 35
-99 -7 -109 -46 -119 -48 -12 0 35 -3 44 -8 30 l-8 -20 -5 20 c-5 18 -6 18 -7
-2 0 -13 -2 -23 -3 -23 -2 0 -55 -9 -118 -20 -138 -24 -140 -24 -140 -5 0 15
7 17 95 35 47 9 45 9 -22 4 l-73 -5 -6 41 c-9 52 -42 102 -77 114 -67 24 -126
-64 -134 -198 l-6 -81 -121 -55 -121 -55 -195 1 c-238 1 -598 36 -645 63 -38
22 -53 62 -36 95 12 22 17 24 72 19 67 -7 71 -1 37 55 -19 31 -99 92 -120 92
-17 0 -7 -29 11 -35 11 -3 34 -23 52 -43 27 -30 30 -38 16 -40 -9 -2 -31 3
-48 12 -28 14 -30 14 -24 -4 3 -10 1 -21 -5 -25 -5 -3 -10 -30 -10 -59 0 -97
25 -109 315 -151 234 -33 404 -48 510 -43 73 3 108 11 184 40 94 36 94 36 111
16 11 -14 32 -22 67 -25 69 -7 121 18 142 69 9 21 20 38 24 38 5 0 56 18 115
40 106 40 107 41 121 20 24 -35 72 -27 114 21 21 22 37 47 37 56 0 9 6 13 14
10 9 -4 18 2 23 16 9 27 5 187 -7 277 l-9 65 4 -83z m-458 -158 c25 -39 30
-186 9 -252 -23 -69 -40 -81 -63 -46 -26 40 -26 205 0 253 21 38 32 33 47 -24
l10 -40 -6 45 c-3 25 -11 51 -18 59 -21 20 -52 -17 -70 -81 -33 -122 -36 -129
-30 -54 5 66 22 125 45 153 19 22 57 15 76 -13z m318 -150 c-19 -8 -259 -74
-269 -74 -28 0 18 18 117 46 92 26 191 44 152 28z"/>
<path d="M400 911 c48 -30 379 -39 480 -12 24 6 -37 9 -205 10 -132 1 -251 4
-265 7 -19 4 -21 3 -10 -5z"/>
<path d="M1055 789 c-38 -4 -87 -14 -108 -22 -44 -19 -87 -62 -87 -88 0 -17 9
-19 83 -18 84 1 193 11 201 19 2 3 -1 30 -7 60 l-12 55 -70 -6z m33 -56 c-3
-25 -8 -29 -52 -36 -27 -4 -72 -7 -100 -5 l-51 3 35 19 c31 17 120 43 158 45
9 1 12 -9 10 -26z"/>
<path d="M445 757 c52 -29 309 -32 388 -5 31 11 6 13 -183 13 -120 0 -212 -4
-205 -8z"/>
<path d="M515 680 c40 -10 213 -10 245 0 15 5 -36 8 -125 8 -89 0 -138 -3
-120 -8z"/>
<path d="M1180 644 c-188 -30 -425 -43 -432 -24 -5 15 -229 30 -246 17 -7 -6
-45 -7 -95 -4 -58 5 -73 3 -52 -3 61 -19 301 -41 483 -43 195 -2 261 6 407 52
70 22 53 23 -65 5z"/>
<path d="M332 574 c4 -21 22 -23 26 -1 2 10 -3 17 -13 17 -10 0 -15 -6 -13
-16z"/>
<path d="M390 570 c0 -11 7 -20 15 -20 8 0 15 9 15 20 0 11 -7 20 -15 20 -8 0
-15 -9 -15 -20z"/>
<path d="M922 528 c2 -13 10 -23 18 -23 8 0 16 10 18 23 3 17 -2 22 -18 22
-16 0 -21 -5 -18 -22z"/>
<path d="M994 535 c-4 -9 -2 -21 4 -27 15 -15 44 -1 40 19 -4 23 -36 29 -44 8z"/>
</g>
</svg>
