<?xml version="1.0" standalone="no"?>
<!DOCTYPE svg PUBLIC "-//W3C//DTD SVG 20010904//EN"
 "http://www.w3.org/TR/2001/REC-SVG-20010904/DTD/svg10.dtd">
<svg version="1.0" xmlns="http://www.w3.org/2000/svg"
 width="300.000000pt" height="168.000000pt" viewBox="0 0 300.000000 168.000000"
 preserveAspectRatio="xMidYMid meet">

<g transform="translate(0.000000,168.000000) scale(0.100000,-0.100000)"
fill="#000000" stroke="none">
<path d="M1808 1573 c7 -3 16 -2 19 1 4 3 -2 6 -13 5 -11 0 -14 -3 -6 -6z"/>
<path d="M1928 1573 c6 -2 18 -2 25 0 6 3 1 5 -13 5 -14 0 -19 -2 -12 -5z"/>
<path d="M1758 1563 c7 -3 16 -2 19 1 4 3 -2 6 -13 5 -11 0 -14 -3 -6 -6z"/>
<path d="M2043 1563 c9 -2 25 -2 35 0 9 3 1 5 -18 5 -19 0 -27 -2 -17 -5z"/>
<path d="M1708 1553 c7 -3 16 -2 19 1 4 3 -2 6 -13 5 -11 0 -14 -3 -6 -6z"/>
<path d="M2158 1553 c12 -2 30 -2 40 0 9 3 -1 5 -23 4 -22 0 -30 -2 -17 -4z"/>
<path d="M1588 1533 c7 -3 16 -2 19 1 4 3 -2 6 -13 5 -11 0 -14 -3 -6 -6z"/>
<path d="M2318 1533 c7 -3 16 -2 19 1 4 3 -2 6 -13 5 -11 0 -14 -3 -6 -6z"/>
<path d="M1528 1523 c6 -2 18 -2 25 0 6 3 1 5 -13 5 -14 0 -19 -2 -12 -5z"/>
<path d="M2368 1523 c7 -3 16 -2 19 1 4 3 -2 6 -13 5 -11 0 -14 -3 -6 -6z"/>
<path d="M1478 1513 c7 -3 16 -2 19 1 4 3 -2 6 -13 5 -11 0 -14 -3 -6 -6z"/>
<path d="M1418 1503 c7 -3 16 -2 19 1 4 3 -2 6 -13 5 -11 0 -14 -3 -6 -6z"/>
<path d="M1368 1493 c7 -3 16 -2 19 1 4 3 -2 6 -13 5 -11 0 -14 -3 -6 -6z"/>
<path d="M1308 1483 c7 -3 16 -2 19 1 4 3 -2 6 -13 5 -11 0 -14 -3 -6 -6z"/>
<path d="M2510 1486 c0 -2 8 -10 18 -17 15 -13 16 -12 3 4 -13 16 -21 21 -21
13z"/>
<path d="M1248 1473 c6 -2 18 -2 25 0 6 3 1 5 -13 5 -14 0 -19 -2 -12 -5z"/>
<path d="M1198 1463 c7 -3 16 -2 19 1 4 3 -2 6 -13 5 -11 0 -14 -3 -6 -6z"/>
<path d="M1635 1445 c-82 -13 -397 -60 -700 -104 -736 -109 -808 -120 -818
-130 -23 -23 -27 -215 -5 -236 4 -4 1061 45 1519 71 l116 6 12 -78 c7 -44 21
-122 31 -174 13 -67 20 -157 23 -307 4 -212 4 -213 -17 -208 -68 14 -158 25
-165 21 -5 -3 -10 36 -13 87 -3 79 -8 100 -33 146 -33 60 -74 91 -120 91 -69
0 -101 -53 -115 -188 -5 -46 -10 -85 -12 -87 -2 -1 -46 4 -98 11 -226 31 -523
65 -628 71 l-112 6 0 71 c0 84 -26 150 -64 168 -50 22 -83 -37 -86 -152 -3
-105 -1 -115 22 -125 46 -21 30 -32 -49 -34 -42 -1 -79 -3 -80 -5 -2 -2 61 -6
139 -10 434 -21 581 -36 841 -87 81 -16 164 -29 183 -29 19 0 46 -7 59 -16 21
-14 57 -15 292 -10 282 6 329 9 340 19 3 4 27 7 53 7 81 0 533 39 570 50 19 5
40 18 47 28 11 18 9 19 -30 11 -23 -5 -164 -20 -313 -34 -150 -13 -284 -29
-299 -35 -60 -23 -60 -23 -57 126 2 74 -1 228 -7 342 -9 190 -14 224 -56 412
-76 337 -90 348 -370 305z m313 -232 c-10 -2 -28 -2 -40 0 -13 2 -5 4 17 4 22
1 32 -1 23 -4z m-95 -10 c-30 -6 -33 -21 -36 -193 l-3 -145 -2 173 -2 172 33
-1 c23 -1 26 -3 10 -6z m8 -604 c38 -71 87 -115 149 -133 l45 -13 3 -92 c2
-62 -1 -91 -8 -91 -35 0 -206 23 -212 29 -8 8 -23 361 -15 361 3 0 20 -27 38
-61z m-1411 -28 c15 -28 12 -84 -4 -107 -14 -17 -16 -18 -31 -3 -20 20 -24 91
-6 113 18 21 28 20 41 -3z m1086 -106 c44 -67 -8 -199 -61 -155 -25 21 -37 85
-25 129 15 56 58 69 86 26z m437 -202 c-7 -2 -21 -2 -30 0 -10 3 -4 5 12 5 17
0 24 -2 18 -5z m70 -10 c-7 -2 -19 -2 -25 0 -7 3 -2 5 12 5 14 0 19 -2 13 -5z"/>
<path d="M1138 1453 c7 -3 16 -2 19 1 4 3 -2 6 -13 5 -11 0 -14 -3 -6 -6z"/>
<path d="M1078 1443 c7 -3 16 -2 19 1 4 3 -2 6 -13 5 -11 0 -14 -3 -6 -6z"/>
<path d="M2023 1434 c-20 -10 -34 -26 -38 -42 -6 -30 126 -594 152 -650 12
-25 30 -40 72 -59 52 -24 71 -26 276 -33 147 -5 235 -5 264 3 l44 10 -7 81
c-3 45 -9 91 -12 102 -4 16 0 23 17 27 22 6 22 7 15 132 -3 71 -13 142 -21
161 -16 40 -70 76 -104 71 -25 -5 -32 8 -71 117 -16 44 -21 49 -51 51 -19 2
-105 12 -192 24 -190 25 -299 27 -344 5z m698 -244 c-3 -8 -5 -39 -5 -67 0
-29 -1 -53 -2 -53 -3 0 -44 123 -44 133 0 4 12 7 28 5 18 -2 26 -8 23 -18z"/>
<path d="M2550 1446 c0 -2 8 -10 18 -17 15 -13 16 -12 3 4 -13 16 -21 21 -21
13z"/>
<path d="M1028 1433 c7 -3 16 -2 19 1 4 3 -2 6 -13 5 -11 0 -14 -3 -6 -6z"/>
<path d="M908 1413 c7 -3 16 -2 19 1 4 3 -2 6 -13 5 -11 0 -14 -3 -6 -6z"/>
<path d="M858 1403 c7 -3 16 -2 19 1 4 3 -2 6 -13 5 -11 0 -14 -3 -6 -6z"/>
<path d="M798 1393 c7 -3 16 -2 19 1 4 3 -2 6 -13 5 -11 0 -14 -3 -6 -6z"/>
<path d="M678 1373 c6 -2 18 -2 25 0 6 3 1 5 -13 5 -14 0 -19 -2 -12 -5z"/>
<path d="M628 1363 c7 -3 16 -2 19 1 4 3 -2 6 -13 5 -11 0 -14 -3 -6 -6z"/>
<path d="M568 1353 c6 -2 18 -2 25 0 6 3 1 5 -13 5 -14 0 -19 -2 -12 -5z"/>
<path d="M518 1343 c7 -3 16 -2 19 1 4 3 -2 6 -13 5 -11 0 -14 -3 -6 -6z"/>
<path d="M348 1313 c7 -3 16 -2 19 1 4 3 -2 6 -13 5 -11 0 -14 -3 -6 -6z"/>
<path d="M228 1293 c7 -3 16 -2 19 1 4 3 -2 6 -13 5 -11 0 -14 -3 -6 -6z"/>
<path d="M168 1283 c6 -2 18 -2 25 0 6 3 1 5 -13 5 -14 0 -19 -2 -12 -5z"/>
<path d="M114 1258 l-19 -23 23 19 c12 11 22 21 22 23 0 8 -8 2 -26 -19z"/>
<path d="M81 1164 c0 -11 3 -14 6 -6 3 7 2 16 -1 19 -3 4 -6 -2 -5 -13z"/>
<path d="M74 840 c0 -113 2 -159 3 -102 2 56 2 148 0 205 -1 56 -3 10 -3 -103z"/>
<path d="M723 973 l-33 -4 2 -267 3 -267 2 261 3 261 52 6 c28 4 55 4 60 1 5
-4 8 -116 7 -265 -1 -143 1 -262 5 -266 3 -3 6 118 6 270 l0 277 -37 -2 c-21
0 -53 -3 -70 -5z"/>
<path d="M100 526 c0 -2 29 -14 64 -26 44 -14 82 -20 118 -17 l53 3 -56 2
c-31 1 -82 11 -114 22 -63 22 -65 22 -65 16z"/>
<path d="M2775 480 c0 -22 3 -40 8 -40 4 0 7 18 7 40 0 22 -3 40 -7 40 -5 0
-8 -18 -8 -40z"/>
<path d="M2687 473 c8 -50 13 -55 13 -10 0 20 -4 38 -9 42 -6 3 -7 -10 -4 -32z"/>
<path d="M2250 493 c35 -2 68 -9 73 -16 6 -8 7 -8 4 3 -3 11 -20 15 -73 16
l-69 1 65 -4z"/>
<path d="M2120 465 c0 -14 2 -25 4 -25 2 0 6 11 8 25 3 14 1 25 -3 25 -5 0 -9
-11 -9 -25z"/>
<path d="M2544 448 l-19 -23 23 19 c12 11 22 21 22 23 0 8 -8 2 -26 -19z"/>
<path d="M2782 405 c0 -16 2 -22 5 -12 2 9 2 23 0 30 -3 6 -5 -1 -5 -18z"/>
<path d="M2198 413 c6 -2 18 -2 25 0 6 3 1 5 -13 5 -14 0 -19 -2 -12 -5z"/>
</g>
</svg>
